<?xml version="1.0" standalone="no"?>
<!DOCTYPE svg PUBLIC "-//W3C//DTD SVG 20010904//EN"
 "http://www.w3.org/TR/2001/REC-SVG-20010904/DTD/svg10.dtd">
<svg version="1.0" xmlns="http://www.w3.org/2000/svg"
 width="4004.000000pt" height="957.000000pt" viewBox="0 0 4004.000000 957.000000"
 preserveAspectRatio="xMidYMid meet">

<g transform="translate(0.000000,957.000000) scale(0.100000,-0.100000)"
fill="#000000" stroke="none">
<path d="M6135 9560 c-245 -18 -603 -91 -597 -122 1 -8 165 -397 363 -864 198
-467 374 -882 391 -921 l30 -73 397 0 398 0 6 -562 c4 -310 7 -738 7 -952 l0
-388 259 -612 c143 -336 267 -628 276 -648 l15 -38 93 56 c660 400 1129 1060
1281 1804 45 223 51 291 50 575 0 298 -15 433 -73 670 -92 374 -277 753 -515
1055 -76 97 -329 350 -426 426 -408 321 -913 527 -1430 583 -144 15 -391 20
-525 11z"/>
<path d="M18934 6700 c-933 -84 -1688 -607 -2044 -1415 -87 -197 -141 -385
-177 -615 -25 -163 -25 -537 1 -705 145 -955 804 -1684 1749 -1935 342 -91
754 -109 1116 -50 416 68 786 227 1126 483 110 84 337 313 423 427 338 453
502 979 478 1535 -29 678 -310 1273 -801 1693 -356 305 -807 503 -1290 567
-142 19 -453 27 -581 15z m511 -1174 c655 -168 1020 -921 793 -1639 -133 -422
-463 -714 -888 -783 -140 -23 -353 -14 -485 20 -179 46 -349 141 -484 270
-178 170 -293 382 -353 647 -20 89 -23 131 -23 294 0 206 17 315 72 469 157
437 526 725 965 754 141 10 284 -2 403 -32z"/>
<path d="M29017 6699 c-673 -55 -1289 -376 -1690 -878 -265 -332 -429 -721
-493 -1166 -21 -145 -24 -493 -6 -635 70 -533 282 -989 628 -1350 486 -506
1157 -761 1899 -720 186 10 268 20 421 50 514 101 949 363 1307 789 126 148
149 183 135 197 -25 23 -936 664 -945 664 -4 0 -40 -36 -78 -81 -167 -193
-376 -343 -570 -407 -129 -44 -222 -57 -395 -56 -145 1 -177 4 -265 27 -362
96 -650 377 -768 753 -52 165 -62 235 -62 444 0 168 3 210 23 300 103 458 404
788 818 892 77 19 114 23 269 22 161 0 190 -3 276 -26 52 -14 129 -40 170 -57
153 -64 358 -220 484 -370 33 -39 62 -71 65 -71 4 0 934 711 953 729 20 19
-250 317 -405 447 -171 144 -402 277 -622 359 -331 123 -758 176 -1149 144z"/>
<path d="M11340 4330 l0 -2290 635 0 635 0 0 870 0 870 845 0 845 0 0 -870 0
-870 640 0 640 0 0 2290 0 2290 -640 0 -640 0 0 -860 0 -860 -845 0 -845 0 0
860 0 860 -635 0 -635 0 0 -2290z"/>
<path d="M22780 4330 l0 -2290 1695 0 1695 0 0 555 0 555 -1060 0 -1060 0 0
1735 0 1735 -635 0 -635 0 0 -2290z"/>
<path d="M32390 4330 l0 -2290 640 0 640 0 0 2290 0 2290 -640 0 -640 0 0
-2290z"/>
<path d="M34990 4330 l0 -2290 625 0 625 0 2 1331 3 1331 623 -891 c343 -490
628 -891 635 -891 7 0 293 403 637 896 l625 896 3 -1336 2 -1336 635 0 635 0
0 2290 0 2290 -676 -2 -676 -3 -582 -880 c-320 -484 -586 -879 -591 -878 -6 1
-271 397 -590 880 l-581 878 -677 3 -677 2 0 -2290z"/>
</g>
</svg>
