<?xml version="1.0" standalone="no"?>
<!DOCTYPE svg PUBLIC "-//W3C//DTD SVG 20010904//EN"
 "http://www.w3.org/TR/2001/REC-SVG-20010904/DTD/svg10.dtd">
<svg version="1.0" xmlns="http://www.w3.org/2000/svg"
 width="6109.000000pt" height="1181.000000pt" viewBox="0 0 6109.000000 1181.000000"
 preserveAspectRatio="xMidYMid meet">

<g transform="translate(0.000000,1181.000000) scale(0.100000,-0.100000)"
fill="#000000" stroke="none">
<path d="M1240 6884 l0 -4927 -103 -159 c-56 -88 -142 -222 -192 -299 -49 -76
-117 -181 -150 -232 -32 -50 -87 -135 -121 -187 -33 -52 -158 -246 -276 -430
-118 -184 -254 -395 -302 -469 -48 -73 -86 -135 -84 -136 2 -2 386 -11 853
-19 468 -8 950 -18 1072 -22 211 -6 223 -5 230 13 4 10 29 56 57 103 27 47 77
132 111 190 34 58 95 161 135 230 40 69 101 172 135 230 34 58 81 138 104 178
l42 72 4599 0 4600 0 0 5395 0 5395 -5355 0 -5355 0 0 -4926z"/>
<path d="M15710 11653 c-474 -37 -884 -196 -1207 -467 -372 -311 -583 -804
-583 -1359 0 -862 472 -1479 1285 -1678 229 -56 312 -64 640 -63 259 0 320 3
445 23 159 24 263 48 384 88 l78 25 -5 37 c-4 20 -30 158 -58 307 l-52 272
-41 -15 c-56 -20 -223 -58 -326 -74 -133 -22 -522 -19 -628 4 -159 35 -299 91
-409 164 -143 94 -287 266 -353 421 -139 327 -133 777 15 1089 54 115 92 170
174 257 117 122 233 198 389 255 296 109 723 106 1071 -9 52 -17 97 -28 101
-23 9 9 173 593 168 598 -56 49 -384 123 -643 145 -112 9 -344 11 -445 3z"/>
<path d="M31190 11226 l-385 -102 -3 -237 -2 -237 -175 0 -175 0 0 -285 0
-285 173 -2 172 -3 6 -625 c5 -532 8 -638 23 -714 34 -182 98 -326 185 -420
98 -105 263 -187 448 -222 156 -29 526 -9 687 38 l38 12 -7 290 c-4 160 -8
292 -9 293 -1 1 -35 -3 -76 -9 -108 -15 -254 -6 -310 19 -63 29 -116 88 -140
156 -34 96 -41 227 -38 717 l3 465 293 3 292 2 0 285 0 285 -292 2 -293 3 -3
338 c-2 260 -5 337 -15 336 -6 0 -185 -47 -397 -103z"/>
<path d="M18155 10699 c-509 -70 -891 -384 -1050 -862 -60 -181 -70 -249 -70
-477 0 -154 5 -226 18 -290 49 -245 144 -434 300 -597 276 -288 715 -421 1269
-385 194 13 326 30 467 61 92 21 281 78 294 90 6 6 -89 507 -99 520 -2 2 -58
-11 -126 -28 -204 -51 -319 -65 -558 -65 -222 -1 -270 5 -400 46 -216 68 -367
223 -388 397 l-5 44 851 -5 851 -4 5 20 c3 12 11 82 18 158 26 305 -45 653
-179 873 -160 264 -386 420 -708 491 -85 18 -391 27 -490 13z m366 -545 c82
-39 160 -117 199 -198 30 -64 64 -208 58 -248 l-3 -23 -485 0 -485 0 3 40 c2
22 14 70 27 107 57 168 166 284 314 335 57 20 82 23 186 21 110 -3 125 -6 186
-34z"/>
<path d="M21439 10700 c-150 -17 -292 -65 -408 -137 -83 -52 -203 -160 -246
-223 -16 -23 -32 -37 -37 -32 -7 7 -37 260 -38 320 l0 22 -350 0 -350 0 5 -22
c12 -56 25 -877 25 -1650 l0 -848 395 0 395 0 0 764 c0 465 4 784 10 817 26
142 145 292 267 340 87 33 218 32 293 -2 30 -14 70 -38 88 -53 46 -39 100
-137 125 -226 21 -73 21 -95 25 -857 l3 -783 394 0 394 0 3 793 c4 876 3 855
70 959 92 145 248 216 412 189 83 -14 137 -43 193 -104 52 -56 78 -108 106
-205 21 -75 21 -93 25 -854 l3 -778 400 0 400 0 -4 843 c-4 803 -5 847 -25
953 -27 142 -79 286 -139 388 -62 103 -177 221 -269 274 -305 177 -735 152
-1047 -60 -61 -42 -183 -157 -235 -222 l-31 -39 -18 33 c-86 157 -196 262
-347 330 -132 60 -326 88 -487 70z"/>
<path d="M25700 10704 c-530 -67 -905 -365 -1079 -857 -92 -262 -106 -582 -36
-857 116 -461 455 -767 963 -869 281 -57 667 -49 1011 20 107 21 319 84 335
99 5 5 -14 121 -44 268 l-53 259 -60 -19 c-284 -88 -731 -113 -960 -54 -206
53 -344 151 -412 290 -19 39 -37 93 -41 120 l-7 49 854 -4 854 -4 13 95 c17
131 9 405 -17 531 -102 501 -404 821 -865 915 -70 14 -386 27 -456 18z m280
-530 c71 -21 148 -71 193 -126 65 -79 117 -222 117 -320 l0 -48 -485 0 -485 0
0 33 c0 40 32 143 65 207 59 116 162 209 275 247 82 28 238 31 320 7z"/>
<path d="M28985 10699 c-266 -28 -528 -174 -672 -374 -14 -20 -25 -27 -31 -20
-6 6 -18 85 -28 178 l-17 167 -354 0 -355 0 6 -102 c3 -57 9 -624 12 -1260 l6
-1158 409 0 409 0 2 808 3 807 34 70 c43 88 134 181 212 218 119 56 274 58
387 5 61 -29 134 -104 166 -172 61 -128 59 -110 63 -958 l4 -778 410 0 409 0
0 728 c0 922 -7 1032 -77 1240 -118 355 -380 562 -763 602 -106 11 -122 11
-235 -1z"/>
<path d="M33755 10699 c-426 -33 -794 -219 -1007 -509 -105 -144 -168 -285
-215 -480 -33 -142 -43 -408 -20 -555 81 -508 391 -864 881 -1011 168 -50 236
-59 476 -58 193 0 239 3 325 22 207 45 365 110 525 216 274 183 451 463 516
817 24 130 24 400 1 529 -109 595 -552 977 -1194 1030 -130 11 -143 11 -288
-1z m202 -558 c178 -26 324 -166 396 -381 46 -138 65 -339 48 -503 -34 -313
-165 -526 -369 -599 -75 -27 -213 -29 -296 -4 -201 60 -344 263 -386 547 -20
133 -8 369 23 491 85 324 300 490 584 449z"/>
<path d="M29080 6329 c-336 -35 -709 -142 -1002 -289 -644 -324 -1075 -867
-1288 -1624 -117 -416 -159 -838 -116 -1169 105 -812 473 -1452 1061 -1844
489 -326 1203 -484 1890 -418 471 45 761 128 902 258 l43 40 0 494 c0 461 -1
495 -17 489 -31 -12 -307 -65 -423 -81 -152 -22 -572 -31 -709 -16 -291 32
-549 117 -735 244 -80 54 -205 175 -265 256 -59 79 -131 221 -166 325 -108
322 -110 782 -4 1112 136 427 460 709 949 828 367 88 892 83 1338 -13 l82 -18
0 46 c1 95 -32 1087 -36 1109 -5 27 -39 43 -222 108 -231 82 -503 142 -742
164 -134 12 -418 11 -540 -1z"/>
<path d="M14216 6288 c-3 -18 -12 -145 -21 -283 -8 -137 -53 -833 -100 -1545
-46 -712 -116 -1781 -154 -2375 -39 -594 -72 -1099 -74 -1122 l-5 -43 789 0
789 0 4 23 c6 24 266 2166 266 2181 0 6 4 6 10 0 6 -6 114 -491 239 -1078 126
-587 231 -1069 234 -1072 4 -4 1012 -23 1267 -24 l116 0 10 28 c6 15 145 338
308 717 164 380 370 859 458 1065 88 206 164 379 169 384 15 16 12 -39 -65
-1144 -41 -585 -74 -1066 -73 -1067 2 -1 359 -5 794 -9 l792 -7 5 34 c3 19 44
549 91 1179 47 630 137 1829 200 2665 63 836 115 1521 115 1523 0 1 -499 2
-1109 2 l-1109 0 -40 -112 c-35 -97 -231 -628 -522 -1413 -94 -256 -306 -828
-406 -1099 -41 -110 -78 -204 -83 -209 -9 -9 -10 -8 -76 293 -24 113 -159 729
-300 1369 -140 640 -255 1165 -255 1167 0 2 -508 4 -1130 4 l-1129 0 -5 -32z"/>
<path d="M23100 6309 c-1269 -108 -2182 -742 -2531 -1756 -174 -507 -202
-1118 -74 -1648 113 -473 369 -909 718 -1224 466 -420 1082 -668 1816 -732
176 -15 655 -6 811 15 406 57 728 151 1055 311 505 246 876 592 1132 1055 224
405 339 958 312 1500 -44 865 -447 1579 -1144 2025 -357 228 -787 377 -1275
441 -147 19 -656 27 -820 13z m507 -1154 c286 -60 501 -223 668 -506 158 -267
235 -604 235 -1026 0 -527 -130 -938 -386 -1222 -376 -418 -1074 -430 -1477
-27 -304 303 -452 804 -417 1410 17 305 72 534 181 761 66 139 119 215 222
322 152 158 325 253 532 291 82 16 364 14 442 -3z"/>
<path d="M48806 5273 c-165 -2534 -152 -2387 -220 -2553 -65 -162 -186 -298
-327 -368 -138 -68 -185 -77 -409 -77 -229 0 -313 17 -469 92 -209 100 -352
313 -352 523 0 41 50 817 111 1724 60 907 110 1658 110 1668 0 17 -33 18 -849
18 l-850 0 -5 -52 c-11 -100 -81 -1306 -111 -1918 -42 -858 -71 -1816 -62
-2017 16 -320 127 -573 347 -792 278 -276 671 -453 1280 -578 78 -15 210 -17
1592 -20 l1506 -3 6 37 c3 21 26 207 51 413 139 1148 216 1764 219 1767 6 6
10 -14 245 -1107 l227 -1055 150 -6 c82 -3 394 -8 694 -10 l544 -4 131 305
c73 168 281 654 464 1080 184 426 339 786 347 800 l13 25 1 -29 c0 -16 -34
-517 -75 -1114 -42 -596 -74 -1086 -73 -1088 2 -1 360 -6 795 -10 l791 -7 6
64 c6 62 200 2630 331 4374 35 479 67 891 70 918 l6 47 -1111 0 c-610 0 -1110
-2 -1110 -4 0 -3 -82 -225 -320 -866 -38 -102 -92 -248 -120 -325 -59 -160
-164 -444 -340 -920 -68 -181 -151 -406 -185 -500 -91 -246 -85 -234 -96 -210
-5 11 -56 238 -114 505 -59 267 -144 656 -190 865 -46 209 -136 622 -201 918
l-118 537 -1131 0 -1131 0 -68 -1047z"/>
<path d="M41180 5665 l0 -645 880 -2 879 -3 -147 -192 c-81 -105 -226 -294
-321 -420 -96 -125 -277 -361 -401 -523 -125 -162 -459 -598 -743 -969 l-517
-675 0 -588 0 -588 1985 0 1985 0 0 585 0 585 -1006 0 c-684 0 -1005 3 -1002
10 2 6 174 216 383 467 209 251 721 866 1138 1367 l757 910 0 648 0 648 -197
0 c-109 0 -940 7 -1848 15 -907 8 -1689 15 -1737 15 l-88 0 0 -645z"/>
<path d="M31126 6228 c-14 -164 -66 -1231 -61 -1236 3 -3 399 1 880 8 482 7
878 10 881 7 4 -3 -63 -905 -148 -2004 -85 -1099 -154 -1999 -154 -2000 2 -2
1551 -43 1641 -43 l70 0 120 2025 120 2025 927 0 926 0 6 63 c3 34 8 211 11
392 3 182 8 444 12 583 l6 252 -2616 0 -2615 0 -6 -72z"/>
<path d="M36830 6295 c0 -4 -34 -397 -75 -873 -149 -1721 -206 -2374 -290
-3347 -46 -545 -87 -1005 -89 -1023 l-5 -32 1975 0 1974 0 0 595 0 595 -1097
2 -1098 3 0 400 0 400 968 3 967 2 0 610 0 610 -895 0 -895 0 0 38 c0 20 9
192 20 382 11 190 20 346 20 348 0 1 531 2 1180 2 l1180 0 0 33 c0 17 22 302
49 632 27 330 48 601 47 602 -1 1 -602 4 -1336 7 -734 3 -1620 9 -1967 12
-348 3 -633 2 -633 -1z"/>
<path d="M57121 5948 c-93 -189 -278 -563 -411 -833 -133 -269 -318 -643 -410
-830 -92 -187 -259 -524 -370 -750 -111 -225 -271 -549 -355 -720 -84 -170
-271 -548 -415 -840 -306 -619 -500 -1014 -500 -1021 0 -2 391 -4 868 -4 l869
0 128 238 c71 130 138 255 151 277 18 34 219 406 329 610 18 33 65 120 104
193 l72 132 812 -2 811 -3 42 -120 c46 -131 143 -410 340 -977 l127 -368 889
0 c843 0 888 1 879 18 -5 9 -48 118 -96 242 -47 124 -97 252 -110 285 -83 212
-442 1143 -465 1205 -16 41 -81 210 -145 375 -94 244 -290 749 -695 1800 -15
39 -64 165 -108 280 -44 116 -122 316 -172 445 -50 129 -132 342 -182 473
l-91 237 -864 0 -864 0 -168 -342z m1171 -1968 c70 -256 127 -473 128 -482 0
-17 -26 -18 -400 -18 -379 0 -400 1 -400 18 0 13 260 744 335 940 3 9 31 12
107 10 l103 -3 127 -465z"/>
</g>
</svg>
