<?xml version="1.0" standalone="no"?>
<!DOCTYPE svg PUBLIC "-//W3C//DTD SVG 20010904//EN"
 "http://www.w3.org/TR/2001/REC-SVG-20010904/DTD/svg10.dtd">
<svg version="1.0" xmlns="http://www.w3.org/2000/svg"
 width="5822.000000pt" height="2446.000000pt" viewBox="0 0 5822.000000 2446.000000"
 preserveAspectRatio="xMidYMid meet">

<g transform="translate(0.000000,2446.000000) scale(0.100000,-0.100000)"
fill="#000000" stroke="none">
<path d="M40565 24444 c-512 -30 -828 -72 -1140 -151 -343 -86 -620 -177 -855
-280 -69 -30 -161 -66 -206 -79 -148 -43 -373 -134 -596 -241 -144 -69 -185
-98 -57 -40 126 58 370 154 520 206 79 27 194 71 254 96 378 160 952 304 1470
370 351 44 459 50 930 50 502 -1 699 -14 1130 -76 696 -101 1505 -329 2086
-588 62 -28 114 -49 116 -47 6 5 -290 143 -451 210 -180 75 -553 202 -806 275
-561 160 -943 232 -1480 276 -172 15 -780 27 -915 19z"/>
<path d="M46480 21219 c-581 -38 -1275 -147 -2256 -354 -1105 -234 -2205 -519
-3296 -854 -2571 -791 -4774 -1711 -6742 -2815 -111 -62 -291 -159 -401 -216
-328 -169 -511 -277 -564 -334 l-24 -26 77 -507 c43 -280 80 -510 82 -512 3
-3 17 2 32 11 145 84 1653 903 2172 1180 3201 1709 5523 2751 7825 3511 547
181 1250 392 1475 443 159 36 400 30 400 -11 0 -22 -59 -94 -103 -126 -23 -17
-139 -79 -257 -139 -519 -260 -917 -534 -1379 -950 -658 -591 -1450 -1568
-1978 -2440 -740 -1223 -1094 -2390 -1174 -3869 -15 -276 -6 -1091 15 -1371
52 -694 138 -1337 282 -2103 45 -239 165 -829 170 -835 2 -3 1714 378 1722
383 1 1 -36 76 -82 166 -439 850 -727 1818 -841 2829 -65 578 -72 1283 -19
1885 85 972 322 1964 686 2880 74 188 230 546 235 541 2 -2 -3 -59 -12 -127
-64 -527 -72 -1191 -19 -1699 136 -1319 646 -2462 1468 -3283 499 -500 1049
-820 1576 -919 167 -32 451 -31 600 1 637 137 1145 634 1634 1601 460 907 724
1873 812 2970 34 417 21 1062 -31 1520 -134 1176 -535 2332 -1139 3283 -123
194 -196 259 -324 286 -60 13 -428 13 -622 0z"/>
<path d="M42963 19717 c-573 -282 -1043 -515 -1043 -518 0 -3 82 -9 182 -13
100 -4 184 -8 185 -10 2 -2 -1 -35 -7 -73 -5 -39 -13 -128 -16 -199 -7 -126
-6 -129 12 -113 10 9 405 334 877 723 731 603 873 722 855 715 -2 0 -472 -231
-1045 -512z"/>
<path d="M40614 18252 c-573 -438 -1041 -798 -1040 -799 1 -1 165 -11 366 -23
200 -11 367 -23 370 -26 3 -3 5 -140 5 -305 0 -164 2 -299 5 -299 7 0 1754
1789 1758 1801 2 5 -82 9 -202 9 l-206 0 0 220 c0 121 -3 220 -7 220 -5 -1
-477 -360 -1049 -798z"/>
<path d="M39288 17193 c-34 -26 -178 -162 -318 -302 -358 -358 -762 -805
-1413 -1565 -312 -364 -317 -371 -290 -378 15 -4 177 -16 358 -28 182 -11 351
-23 378 -26 l47 -6 0 -311 0 -311 56 84 c122 183 335 439 704 845 275 304 456
495 929 983 228 236 278 292 259 292 -46 1 -628 66 -632 71 -3 3 -2 124 2 269
8 288 5 430 -8 430 -4 0 -37 -21 -72 -47z"/>
<path d="M36974 14692 c-233 -213 -797 -988 -1651 -2265 l-353 -529 20 -36
c97 -172 392 -513 680 -788 175 -166 152 -158 185 -67 129 365 539 1010 1179
1858 210 277 494 640 680 868 l97 117 -397 0 -397 0 6 38 c10 64 19 765 10
809 l-8 43 -51 -48z"/>
<path d="M25210 12670 c6 -11 19 -24 30 -30 30 -16 8152 -14 8171 3 8 6 21 20
28 30 13 16 -185 17 -4113 17 -4108 0 -4127 0 -4116 -20z"/>
<path d="M540 8622 c0 -5 9 -18 20 -30 l21 -22 637 0 c667 0 648 -1 681 43 13
16 -21 17 -673 17 -377 0 -686 -4 -686 -8z"/>
<path d="M3600 8620 c0 -5 9 -19 20 -30 20 -20 33 -20 665 -20 l644 0 21 22
c11 12 20 25 20 30 0 4 -308 8 -685 8 -450 0 -685 -3 -685 -10z"/>
<path d="M6040 8622 c0 -5 9 -18 20 -30 l21 -22 1869 0 1869 0 21 22 c11 12
20 25 20 30 0 4 -859 8 -1910 8 -1050 0 -1910 -4 -1910 -8z"/>
<path d="M12100 8622 c0 -4 7 -18 16 -30 l15 -22 734 0 734 0 15 22 c9 12 16
26 16 30 0 5 -344 8 -765 8 -421 0 -765 -3 -765 -8z"/>
<path d="M15163 8603 l27 -28 673 -3 672 -3 18 22 c9 12 17 25 17 30 0 5 -305
9 -717 9 l-718 0 28 -27z"/>
<path d="M18761 8608 c7 -13 17 -26 23 -30 6 -4 298 -8 649 -8 661 0 652 -1
706 41 23 19 7 19 -683 19 l-707 0 12 -22z"/>
<path d="M20310 8602 l45 -27 709 -3 c485 -2 712 1 721 8 7 6 15 20 18 30 5
20 -4 20 -766 20 l-772 0 45 -28z"/>
<path d="M23767 8613 c16 -44 -8 -43 722 -43 659 0 698 1 737 19 23 10 45 24
48 30 5 8 -201 11 -753 11 -720 0 -760 -1 -754 -17z"/>
<path d="M46915 8613 c-400 -16 -834 -110 -982 -214 -31 -21 -53 -39 -48 -39
4 0 76 22 159 49 365 118 660 158 1106 148 360 -8 593 -43 869 -132 76 -25
144 -45 151 -45 26 0 -77 67 -135 89 -101 38 -316 89 -465 111 -121 18 -503
43 -565 38 -11 -1 -51 -3 -90 -5z"/>
<path d="M34380 8520 c6 -11 19 -24 30 -30 12 -7 453 -10 1322 -10 785 0 1359
-4 1443 -10 256 -19 460 -53 637 -106 104 -31 108 -30 73 6 -48 51 -253 103
-525 136 -224 26 -614 34 -1813 34 -1170 0 -1178 0 -1167 -20z"/>
<path d="M39391 8523 c33 -44 14 -43 672 -43 409 0 635 4 647 10 11 6 24 19
30 30 11 20 5 20 -676 20 -652 0 -686 -1 -673 -17z"/>
<path d="M42470 8520 c6 -11 19 -24 30 -30 12 -6 238 -10 647 -10 658 0 639
-1 672 43 13 16 -21 17 -673 17 -681 0 -687 0 -676 -20z"/>
<path d="M50040 8532 c0 -5 9 -18 20 -30 l21 -22 637 0 c667 0 648 -1 681 43
13 16 -21 17 -673 17 -377 0 -686 -4 -686 -8z"/>
<path d="M53000 8522 c0 -43 -14 -42 865 -42 462 0 857 4 877 9 21 5 52 18 70
30 l33 21 -922 0 c-882 0 -923 -1 -923 -18z"/>
<path d="M22762 7035 c4 -26 41 -27 47 0 3 16 1 17 -11 7 -11 -9 -17 -9 -27 1
-10 10 -12 8 -9 -8z"/>
<path d="M1975 6950 c-17 -19 -17 -20 10 -30 32 -12 1539 -10 1551 2 4 5 -1
17 -11 28 -18 20 -30 20 -775 20 -741 0 -757 0 -775 -20z"/>
<path d="M7482 6858 c-18 -18 -14 -35 11 -42 12 -3 499 -6 1083 -6 834 0 1063
3 1075 13 8 6 21 20 28 30 13 16 -41 17 -1086 17 -841 0 -1102 -3 -1111 -12z"/>
<path d="M51471 6766 l-24 -26 22 0 c22 0 36 20 29 40 -2 6 -14 0 -27 -14z"/>
<path d="M36805 6684 c-27 -8 -110 -25 -183 -39 -125 -23 -154 -25 -461 -25
-314 0 -329 -1 -346 -20 -17 -19 -17 -20 9 -30 36 -13 546 -13 656 0 128 16
329 59 380 81 43 19 44 21 26 35 -11 8 -22 13 -25 13 -3 -1 -28 -8 -56 -15z"/>
<path d="M37531 5831 c-9 -6 4 -15 44 -30 71 -27 97 -24 52 5 -39 26 -77 36
-96 25z"/>
<path d="M48010 5731 c0 -5 10 -21 23 -34 18 -20 127 -56 577 -192 520 -156
555 -166 567 -149 11 15 11 19 1 25 -7 4 -269 85 -583 179 -313 95 -573 174
-577 177 -5 2 -8 0 -8 -6z"/>
<path d="M12355 5680 c-17 -19 -17 -20 10 -30 32 -12 969 -10 981 2 4 5 -1 17
-11 28 -18 19 -30 20 -490 20 -457 0 -472 -1 -490 -20z"/>
<path d="M7482 4958 c-18 -18 -14 -35 11 -42 12 -3 556 -6 1208 -6 934 0 1188
3 1200 13 8 6 21 20 28 30 13 16 -46 17 -1211 17 -939 0 -1227 -3 -1236 -12z"/>
<path d="M46650 4881 l-24 -7 24 -17 c82 -58 325 -95 499 -78 143 15 296 58
315 89 11 18 -46 19 -102 2 -186 -58 -497 -52 -672 12 -8 3 -26 3 -40 -1z"/>
<path d="M41205 4870 c12 -20 86 -51 172 -72 112 -27 329 -29 442 -4 79 17
191 63 191 77 0 15 -57 10 -137 -13 -69 -20 -100 -23 -268 -23 -167 0 -199 3
-268 23 -82 23 -142 29 -132 12z"/>
<path d="M47124 3091 c-76 -13 -124 -30 -174 -63 -115 -76 -154 -220 -92 -339
48 -93 125 -134 395 -210 112 -32 155 -82 126 -150 -17 -43 -63 -69 -122 -69
-91 0 -147 42 -170 127 l-11 44 -56 -6 c-30 -2 -94 -7 -142 -11 -63 -4 -88
-10 -88 -19 0 -35 44 -145 75 -187 61 -83 152 -121 319 -134 242 -17 416 64
475 221 31 81 27 180 -10 250 -48 95 -141 144 -383 205 -66 17 -128 38 -138
47 -28 25 -24 77 8 102 33 26 111 28 155 6 32 -17 69 -69 69 -98 0 -18 -15
-18 218 -1 l73 6 -6 31 c-25 115 -95 194 -204 228 -74 23 -235 33 -317 20z"/>
<path d="M53195 3094 c-11 -2 -45 -9 -75 -15 -76 -16 -144 -52 -205 -110 -99
-94 -140 -222 -132 -414 6 -144 29 -218 93 -306 78 -105 164 -151 319 -171
238 -30 418 48 495 215 55 117 57 111 -62 147 -56 17 -115 35 -130 40 -26 8
-28 6 -43 -41 -20 -61 -58 -107 -102 -125 -78 -33 -194 -3 -232 59 -26 44 -41
123 -41 215 1 144 35 223 114 262 98 47 212 7 252 -87 8 -18 20 -31 27 -28 6
2 65 16 130 30 64 15 117 31 117 36 0 5 -14 37 -30 70 -56 109 -134 176 -242
205 -55 15 -218 27 -253 18z"/>
<path d="M48382 2592 c-100 -268 -182 -490 -182 -495 0 -4 68 -6 151 -5 l152
3 22 75 22 75 176 3 176 2 25 -77 24 -78 157 -3 c131 -2 156 0 153 12 -2 7
-84 230 -183 495 l-180 481 -165 0 -165 0 -183 -488z m401 46 c26 -86 47 -161
47 -167 0 -7 -37 -11 -105 -11 -80 0 -105 3 -105 13 0 7 9 40 19 73 11 32 34
106 51 163 17 57 35 99 39 95 4 -5 29 -80 54 -166z"/>
<path d="M50290 2585 l0 -497 278 5 c313 4 374 15 456 78 127 100 173 222 163
444 -8 196 -65 323 -176 395 -93 59 -118 63 -433 68 l-288 4 0 -497z m505 239
c28 -15 47 -35 65 -69 22 -43 24 -61 25 -159 0 -135 -8 -176 -42 -217 -38 -45
-80 -59 -173 -59 l-80 0 0 266 0 266 83 -3 c58 -3 93 -10 122 -25z"/>
<path d="M51350 2585 l0 -495 415 0 415 0 0 115 0 115 -265 0 -265 0 0 95 0
95 240 0 240 0 0 100 0 100 -240 0 -240 0 0 80 0 80 260 0 260 0 0 105 0 105
-410 0 -410 0 0 -495z"/>
<path d="M54270 3073 c0 -5 83 -226 184 -493 l183 -485 164 -3 164 -2 179 482
c98 266 181 489 183 496 4 9 -30 12 -148 12 l-154 0 -104 -343 c-57 -188 -108
-348 -111 -356 -5 -9 -13 5 -24 40 -9 30 -58 189 -110 354 l-94 300 -156 3
c-86 1 -156 -1 -156 -5z"/>
<path d="M47820 2230 l0 -140 140 0 140 0 0 140 0 140 -140 0 -140 0 0 -140z"/>
<path d="M49350 2230 l0 -140 140 0 140 0 0 140 0 140 -140 0 -140 0 0 -140z"/>
<path d="M53890 2230 l0 -140 140 0 140 0 0 140 0 140 -140 0 -140 0 0 -140z"/>
<path d="M55250 2230 l0 -140 140 0 140 0 0 140 0 140 -140 0 -140 0 0 -140z"/>
</g>
</svg>
